;TYPE=PLATED
;Layer: PTH_Through_Via
;EasyEDA Pro v3.2.148, 2026-06-20 15:30:05
;Gerber Generator version 0.3
M48
METRIC,LZ,0000.00000
;Hole size 1 = 0.30500 METRIC
T01C0.30500
%
G05
G90
T01
X28.448Y46.81995
X27.606Y44.02595
X27.272Y44.78795
X43.194Y46.56595
X42.606Y45.29595
X53.956Y47.32795
X58.194Y46.56595
X63.448Y46.81995
X68.956Y47.32795
X73.956Y47.32795
X78.956Y46.56595
X28.448Y35.81995
X29.13Y35.31195
X23.796Y31.24795
X20.748Y32.00995
X26.764Y35.81995
X35.574Y34.54995
X42.352Y36.32795
X48.622Y34.29595
X58.194Y35.56595
X63.448Y35.81995
X68.956Y36.32795
X73.956Y36.32795
X78.956Y35.56595
X21.336Y25.32795
X28.622Y24.56595
X38.956Y25.32795
X31.37905Y20.799
X24.52105Y20.545
X34.304Y24.56595
X48.956Y25.32795
X45.4Y20.799
X41.844Y20.799
X46.844Y24.56595
X58.194Y24.56595
X63.448Y24.81995
X68.956Y25.32795
X73.956Y25.32795
X78.956Y24.56595
X28.448Y13.81995
X28.876Y12.54995
X24.37095Y11.78795
X33.542Y12.29595
X42.352Y14.32795
X48.622Y12.29595
X58.194Y13.56595
X63.448Y13.81995
X68.956Y14.32795
X73.956Y14.32795
X78.956Y13.56595
X28.702Y5.10595
X33.956Y3.32795
X38.956Y3.32795
X33.796Y1.54995
X48.956Y3.32795
X53.956Y3.32795
X58.194Y2.56595
X63.448Y2.81995
X68.956Y3.32795
X73.956Y3.32795
X78.956Y2.56595
X1.19393Y29.90901
X3.04803Y38.48103
X1.23779Y22.71286
X5.04779Y18.90286
X11.39779Y15.34686
X9.906Y48.895
X17.16Y47.371
X15.89Y35.609
X15.89Y34.085
X15.89Y23.671
X78.128Y46.609
X23.144Y46.101
X23.36803Y38.48095
X25.176Y23.593
X27.97Y22.831
X22.89Y12.593
X22.89Y8.783
X21.508Y38.735
X35.874Y35.863
X42.366Y32.131
X49.62Y31.623
X57.89Y26.973
X63.112Y23.339
X68.588Y22.069
X5.92595Y22.81692
X4.90995Y15.70492
X4.42295Y27.39789
X8.12803Y28.32097
X8.12803Y16.12897
X18.034Y31.66605
X19.05Y30.65005
X21.082Y23.12805
X16.256Y22.87405
X9.652Y28.956
X9.652Y27.178
X14.224Y23.24092
X15.24Y18.99518
X6.60403Y51.18097
X7.19595Y15.53705
M30