G04 Layer: BottomPasteMaskLayer*
G04 EasyEDA Pro v3.2.148, 2026-06-20 15:30:05*
G04 Gerber Generator version 0.3*
G04 Scale: 100 percent, Rotated: No, Reflected: No*
G04 Dimensions in millimeters*
G04 Leading zeros omitted, absolute positions, 4 integers and 5 decimals*
G04 Generated by one-click*
G04 Object Configs: Pad,Via,Track,Text,Image,Dimension,BoardOutline,BoardCutout,CopperFilled,SolidRegion,FPCStiffener,Line,PlaneZone,ComponentProperty,ComponentSilkscreen,TearDrop*
G04 Layer Configs: 1,2,3,4,5,6,7,8,9,10,11,13,14,71,72,56*
G04 Copper Areas: 0*
%FSLAX45Y45*%
%MOMM*%
%ADD10R,1.0X1.1*%
%ADD11O,2.0X1.6*%
%ADD12C,0.1547*%
G75*


G04 PolygonModel Start*
G36*
G01X198036Y2029144D02*
G01X188036Y2019144D01*
G01X59538Y2019144D01*
G01X49538Y2029144D01*
G01X49538Y2181945D01*
G01X59538Y2191945D01*
G01X188036Y2191945D01*
G01X198036Y2181945D01*
G01X198036Y2144920D01*
G01X188036Y2134920D01*
G01X157546Y2134920D01*
G01X147546Y2124920D01*
G01X147546Y2086170D01*
G01X157546Y2076170D01*
G01X188036Y2076170D01*
G01X198036Y2066170D01*
G01X198036Y2029144D01*
G37*
G36*
G01X368038Y2029144D02*
G01X368038Y2066170D01*
G01X378038Y2076170D01*
G01X408529Y2076170D01*
G01X418529Y2086170D01*
G01X418529Y2124920D01*
G01X408529Y2134920D01*
G01X378038Y2134920D01*
G01X368038Y2144920D01*
G01X368038Y2181945D01*
G01X378038Y2191945D01*
G01X506537Y2191945D01*
G01X516537Y2181945D01*
G01X516537Y2029144D01*
G01X506537Y2019144D01*
G01X378038Y2019144D01*
G01X368038Y2029144D01*
G37*
G36*
G01X176748Y3138405D02*
G01X166748Y3128405D01*
G01X65997Y3128405D01*
G01X55997Y3138405D01*
G01X55997Y3288504D01*
G01X65997Y3298504D01*
G01X166748Y3298504D01*
G01X176748Y3288504D01*
G01X176748Y3252372D01*
G01X166748Y3242372D01*
G01X145692Y3242372D01*
G01X135692Y3232373D01*
G01X135692Y3194537D01*
G01X145692Y3184537D01*
G01X166748Y3184537D01*
G01X176748Y3174537D01*
G01X176748Y3138405D01*
G37*
G36*
G01X351749Y3138405D02*
G01X351749Y3174537D01*
G01X361749Y3184537D01*
G01X382806Y3184537D01*
G01X392806Y3194537D01*
G01X392806Y3232373D01*
G01X382806Y3242372D01*
G01X361749Y3242372D01*
G01X351749Y3252372D01*
G01X351749Y3288504D01*
G01X361749Y3298504D01*
G01X462501Y3298504D01*
G01X472501Y3288504D01*
G01X472501Y3138405D01*
G01X462501Y3128405D01*
G01X361749Y3128405D01*
G01X351749Y3138405D01*
G37*
G36*
G01X798525Y1732022D02*
G01X788525Y1722022D01*
G01X687774Y1722022D01*
G01X677774Y1732022D01*
G01X677774Y1882121D01*
G01X687774Y1892121D01*
G01X788525Y1892121D01*
G01X798525Y1882121D01*
G01X798525Y1845990D01*
G01X788525Y1835990D01*
G01X767469Y1835990D01*
G01X757469Y1825990D01*
G01X757469Y1788154D01*
G01X767469Y1778154D01*
G01X788525Y1778154D01*
G01X798525Y1768154D01*
G01X798525Y1732022D01*
G37*
G36*
G01X973526Y1732022D02*
G01X973526Y1768154D01*
G01X983526Y1778154D01*
G01X1004583Y1778154D01*
G01X1014583Y1788154D01*
G01X1014583Y1825990D01*
G01X1004583Y1835990D01*
G01X983526Y1835990D01*
G01X973526Y1845990D01*
G01X973526Y1882121D01*
G01X983526Y1892121D01*
G01X1084278Y1892121D01*
G01X1094278Y1882121D01*
G01X1094278Y1732022D01*
G01X1084278Y1722022D01*
G01X983526Y1722022D01*
G01X973526Y1732022D01*
G37*
G36*
G01X1408125Y1730364D02*
G01X1398125Y1720364D01*
G01X1297374Y1720364D01*
G01X1287374Y1730364D01*
G01X1287374Y1880463D01*
G01X1297374Y1890463D01*
G01X1398125Y1890463D01*
G01X1408125Y1880463D01*
G01X1408125Y1844331D01*
G01X1398125Y1834331D01*
G01X1377069Y1834331D01*
G01X1367069Y1824331D01*
G01X1367069Y1786495D01*
G01X1377069Y1776495D01*
G01X1398125Y1776495D01*
G01X1408125Y1766495D01*
G01X1408125Y1730364D01*
G37*
G36*
G01X1583126Y1730364D02*
G01X1583126Y1766495D01*
G01X1593126Y1776495D01*
G01X1614183Y1776495D01*
G01X1624183Y1786495D01*
G01X1624183Y1824331D01*
G01X1614183Y1834331D01*
G01X1593126Y1834331D01*
G01X1583126Y1844331D01*
G01X1583126Y1880463D01*
G01X1593126Y1890463D01*
G01X1693878Y1890463D01*
G01X1703878Y1880463D01*
G01X1703878Y1730364D01*
G01X1693878Y1720364D01*
G01X1593126Y1720364D01*
G01X1583126Y1730364D01*
G37*

G04 Pad Start*
G54D10*
G01X2971800Y4808995D03*
G01X2971800Y4462005D03*
G01X3471800Y4808995D03*
G01X3471800Y4462005D03*
G01X3971800Y4808995D03*
G01X3971800Y4462005D03*
G01X4471800Y4808995D03*
G01X4471800Y4462005D03*
G01X4971800Y4808995D03*
G01X4971800Y4462005D03*
G01X5471800Y4808995D03*
G01X5471800Y4462005D03*
G01X5971800Y4808995D03*
G01X5971800Y4462005D03*
G01X6471800Y4808995D03*
G01X6471800Y4462005D03*
G01X6971800Y4808995D03*
G01X6971800Y4462005D03*
G01X7471800Y4808995D03*
G01X7471800Y4462005D03*
G01X7971800Y4808995D03*
G01X7971800Y4462005D03*
G01X2971800Y3708995D03*
G01X2971800Y3362005D03*
G01X3471800Y3708995D03*
G01X3471800Y3362005D03*
G01X3971800Y3708995D03*
G01X3971800Y3362005D03*
G01X4471800Y3708995D03*
G01X4471800Y3362005D03*
G01X4971800Y3708995D03*
G01X4971800Y3362005D03*
G54D11*
G01X2260600Y5245097D03*
G01X2260603Y4991108D03*
G01X2260603Y4737097D03*
G01X2260603Y4483100D03*
G01X2260597Y4229103D03*
G01X2260603Y3975095D03*
G01X2260597Y3721100D03*
G01X2260603Y3467097D03*
G01X2260603Y3213108D03*
G01X2260603Y2959100D03*
G01X2260603Y2705103D03*
G01X2260603Y2451100D03*
G01X2260597Y2197103D03*
G01X736603Y2197103D03*
G01X736603Y2451100D03*
G01X736603Y2705095D03*
G01X736603Y2959100D03*
G01X736603Y3213100D03*
G01X736603Y3467097D03*
G01X736603Y3721100D03*
G01X736603Y3975095D03*
G01X736603Y4229103D03*
G01X736603Y4483100D03*
G01X736603Y4737097D03*
G01X736603Y4991100D03*
G01X736603Y5245097D03*
G01X2006597Y2197097D03*
G01X1752603Y2197103D03*
G01X1498600Y2197100D03*
G01X1244597Y2197103D03*
G01X990605Y2197103D03*
G01X2006595Y2451103D03*
G54D10*
G01X5471800Y3708995D03*
G01X5471800Y3362005D03*
G01X5971800Y3708995D03*
G01X5971800Y3362005D03*
G01X6471800Y3708995D03*
G01X6471800Y3362005D03*
G01X6971800Y3708995D03*
G01X6971800Y3362005D03*
G01X7471800Y3708995D03*
G01X7471800Y3362005D03*
G01X7971800Y3708995D03*
G01X7971800Y3362005D03*
G01X2971800Y2608995D03*
G01X2971800Y2262005D03*
G01X3471800Y2608995D03*
G01X3471800Y2262005D03*
G01X3971800Y2608995D03*
G01X3971800Y2262005D03*
G01X4471800Y2608995D03*
G01X4471800Y2262005D03*
G01X4971800Y2608995D03*
G01X4971800Y2262005D03*
G01X5471800Y2608995D03*
G01X5471800Y2262005D03*
G01X5971800Y2608995D03*
G01X5971800Y2262005D03*
G01X6471800Y2608995D03*
G01X6471800Y2262005D03*
G01X6971800Y2608995D03*
G01X6971800Y2262005D03*
G01X7471800Y2608995D03*
G01X7471800Y2262005D03*
G01X7971800Y2608995D03*
G01X7971800Y2262005D03*
G01X2971800Y1508995D03*
G01X2971800Y1162005D03*
G01X3471800Y1508995D03*
G01X3471800Y1162005D03*
G01X3971800Y1508995D03*
G01X3971800Y1162005D03*
G01X4471800Y1508995D03*
G01X4471800Y1162005D03*
G01X4971800Y1508995D03*
G01X4971800Y1162005D03*
G01X5471800Y1508995D03*
G01X5471800Y1162005D03*
G01X5971800Y1508995D03*
G01X5971800Y1162005D03*
G01X6471800Y1508995D03*
G01X6471800Y1162005D03*
G01X6971800Y1508995D03*
G01X6971800Y1162005D03*
G01X7471800Y1508995D03*
G01X7471800Y1162005D03*
G01X7971800Y1508995D03*
G01X7971800Y1162005D03*
G01X2971800Y408995D03*
G01X2971800Y62005D03*
G01X3471800Y408995D03*
G01X3471800Y62005D03*
G01X3971800Y408995D03*
G01X3971800Y62005D03*
G01X4471800Y408995D03*
G01X4471800Y62005D03*
G01X4971800Y408995D03*
G01X4971800Y62005D03*
G01X5471800Y408995D03*
G01X5471800Y62005D03*
G01X5971800Y408995D03*
G01X5971800Y62005D03*
G01X6471800Y408995D03*
G01X6471800Y62005D03*
G01X6971800Y408995D03*
G01X6971800Y62005D03*
G01X7471800Y408995D03*
G01X7471800Y62005D03*
G01X7971800Y408995D03*
G01X7971800Y62005D03*
G04 Pad End*

M02*

