G04 Layer: BottomLayer*
G04 EasyEDA Pro v3.2.148, 2026-06-20 15:30:05*
G04 Gerber Generator version 0.3*
G04 Scale: 100 percent, Rotated: No, Reflected: No*
G04 Dimensions in millimeters*
G04 Leading zeros omitted, absolute positions, 4 integers and 5 decimals*
G04 Generated by one-click*
G04 Object Configs: Pad,Via,Track,Text,Image,Dimension,BoardOutline,BoardCutout,CopperFilled,SolidRegion,FPCStiffener,Line,PlaneZone,ComponentProperty,ComponentSilkscreen,TearDrop*
G04 Layer Configs: 1,2,3,4,5,6,7,8,9,10,11,13,14,71,72,56*
G04 Copper Areas: 0*
%FSLAX45Y45*%
%MOMM*%
%ADD10R,1.7X1.7*%
%ADD11C,1.7*%
%ADD12O,1.6X2.49999*%
%ADD13R,1.48501X1.72799*%
%ADD14R,1.20752X1.70101*%
%ADD15R,1.0X1.1*%
%ADD16O,2.0030X1.6*%
%ADD17O,2.0X1.6*%
%ADD18C,2.0*%
%ADD19C,0.61*%
%ADD20C,0.254*%
G75*


G04 Pad Start*
G54D10*
G01X203200Y4495800D03*
G54D11*
G01X203200Y4241800D03*
G01X203200Y3987800D03*
G01X203200Y3733800D03*
G54D12*
G01X719595Y388506D03*
G01X719595Y108496D03*
G01X719595Y-261506D03*
G01X1769605Y-261506D03*
G01X1769605Y108496D03*
G01X1769605Y388506D03*
G54D13*
G01X123779Y2105545D03*
G01X442295Y2105545D03*
G54D14*
G01X116370Y3213455D03*
G01X412128Y3213455D03*
G01X738147Y1807072D03*
G01X1033904Y1807072D03*
G01X1347747Y1805413D03*
G01X1643504Y1805413D03*
G54D15*
G01X2971800Y4808995D03*
G01X2971800Y4462005D03*
G01X3471800Y4808995D03*
G01X3471800Y4462005D03*
G01X3971800Y4808995D03*
G01X3971800Y4462005D03*
G01X4471800Y4808995D03*
G01X4471800Y4462005D03*
G01X4971800Y4808995D03*
G01X4971800Y4462005D03*
G01X5471800Y4808995D03*
G01X5471800Y4462005D03*
G01X5971800Y4808995D03*
G01X5971800Y4462005D03*
G01X6471800Y4808995D03*
G01X6471800Y4462005D03*
G01X6971800Y4808995D03*
G01X6971800Y4462005D03*
G01X7471800Y4808995D03*
G01X7471800Y4462005D03*
G01X7971800Y4808995D03*
G01X7971800Y4462005D03*
G01X2971800Y3708995D03*
G01X2971800Y3362005D03*
G01X3471800Y3708995D03*
G01X3471800Y3362005D03*
G01X3971800Y3708995D03*
G01X3971800Y3362005D03*
G01X4471800Y3708995D03*
G01X4471800Y3362005D03*
G01X4971800Y3708995D03*
G01X4971800Y3362005D03*
G54D17*
G01X2260600Y5245097D03*
G01X2260603Y4991108D03*
G01X2260603Y4737097D03*
G01X2260603Y4483100D03*
G01X2260597Y4229103D03*
G01X2260603Y3975095D03*
G01X2260597Y3721100D03*
G01X2260603Y3467097D03*
G01X2260603Y3213108D03*
G01X2260603Y2959100D03*
G01X2260603Y2705103D03*
G01X2260603Y2451100D03*
G01X2260597Y2197103D03*
G01X736603Y2197103D03*
G01X736603Y2451100D03*
G01X736603Y2705095D03*
G01X736603Y2959100D03*
G01X736603Y3213100D03*
G01X736603Y3467097D03*
G01X736603Y3721100D03*
G01X736603Y3975095D03*
G01X736603Y4229103D03*
G01X736603Y4483100D03*
G01X736603Y4737097D03*
G01X736603Y4991100D03*
G01X736603Y5245097D03*
G01X2006597Y2197097D03*
G01X1752603Y2197103D03*
G01X1498600Y2197100D03*
G01X1244597Y2197103D03*
G01X990605Y2197103D03*
G01X2006595Y2451103D03*
G54D15*
G01X5471800Y3708995D03*
G01X5471800Y3362005D03*
G01X5971800Y3708995D03*
G01X5971800Y3362005D03*
G01X6471800Y3708995D03*
G01X6471800Y3362005D03*
G01X6971800Y3708995D03*
G01X6971800Y3362005D03*
G01X7471800Y3708995D03*
G01X7471800Y3362005D03*
G01X7971800Y3708995D03*
G01X7971800Y3362005D03*
G01X2971800Y2608995D03*
G01X2971800Y2262005D03*
G01X3471800Y2608995D03*
G01X3471800Y2262005D03*
G01X3971800Y2608995D03*
G01X3971800Y2262005D03*
G01X4471800Y2608995D03*
G01X4471800Y2262005D03*
G01X4971800Y2608995D03*
G01X4971800Y2262005D03*
G01X5471800Y2608995D03*
G01X5471800Y2262005D03*
G01X5971800Y2608995D03*
G01X5971800Y2262005D03*
G01X6471800Y2608995D03*
G01X6471800Y2262005D03*
G01X6971800Y2608995D03*
G01X6971800Y2262005D03*
G01X7471800Y2608995D03*
G01X7471800Y2262005D03*
G01X7971800Y2608995D03*
G01X7971800Y2262005D03*
G01X2971800Y1508995D03*
G01X2971800Y1162005D03*
G01X3471800Y1508995D03*
G01X3471800Y1162005D03*
G01X3971800Y1508995D03*
G01X3971800Y1162005D03*
G01X4471800Y1508995D03*
G01X4471800Y1162005D03*
G01X4971800Y1508995D03*
G01X4971800Y1162005D03*
G01X5471800Y1508995D03*
G01X5471800Y1162005D03*
G01X5971800Y1508995D03*
G01X5971800Y1162005D03*
G01X6471800Y1508995D03*
G01X6471800Y1162005D03*
G01X6971800Y1508995D03*
G01X6971800Y1162005D03*
G01X7471800Y1508995D03*
G01X7471800Y1162005D03*
G01X7971800Y1508995D03*
G01X7971800Y1162005D03*
G01X2971800Y408995D03*
G01X2971800Y62005D03*
G01X3471800Y408995D03*
G01X3471800Y62005D03*
G01X3971800Y408995D03*
G01X3971800Y62005D03*
G01X4471800Y408995D03*
G01X4471800Y62005D03*
G01X4971800Y408995D03*
G01X4971800Y62005D03*
G01X5471800Y408995D03*
G01X5471800Y62005D03*
G01X5971800Y408995D03*
G01X5971800Y62005D03*
G01X6471800Y408995D03*
G01X6471800Y62005D03*
G01X6971800Y408995D03*
G01X6971800Y62005D03*
G01X7471800Y408995D03*
G01X7471800Y62005D03*
G01X7971800Y408995D03*
G01X7971800Y62005D03*
G54D18*
G01X215900Y5194300D03*
G01X8279400Y5194300D03*
G01X215900Y-389900D03*
G01X8279400Y-389900D03*
G04 Pad End*

G04 Via Start*
G54D19*
G01X2844800Y4681995D03*
G01X2760600Y4402595D03*
G01X2727200Y4478795D03*
G01X4319400Y4656595D03*
G01X4260600Y4529595D03*
G01X5395600Y4732795D03*
G01X5819400Y4656595D03*
G01X6344800Y4681995D03*
G01X6895600Y4732795D03*
G01X7395600Y4732795D03*
G01X7895600Y4656595D03*
G01X2844800Y3581995D03*
G01X2913000Y3531195D03*
G01X2379600Y3124795D03*
G01X2074800Y3200995D03*
G01X2676400Y3581995D03*
G01X3557400Y3454995D03*
G01X4235200Y3632795D03*
G01X4862200Y3429595D03*
G01X5819400Y3556595D03*
G01X6344800Y3581995D03*
G01X6895600Y3632795D03*
G01X7395600Y3632795D03*
G01X7895600Y3556595D03*
G01X2133600Y2532795D03*
G01X2862200Y2456595D03*
G01X3895600Y2532795D03*
G01X3137905Y2079900D03*
G01X2452105Y2054500D03*
G01X3430400Y2456595D03*
G01X4895600Y2532795D03*
G01X4540000Y2079900D03*
G01X4184400Y2079900D03*
G01X4684400Y2456595D03*
G01X5819400Y2456595D03*
G01X6344800Y2481995D03*
G01X6895600Y2532795D03*
G01X7395600Y2532795D03*
G01X7895600Y2456595D03*
G01X2844800Y1381995D03*
G01X2887600Y1254995D03*
G01X2437095Y1178795D03*
G01X3354200Y1229595D03*
G01X4235200Y1432795D03*
G01X4862200Y1229595D03*
G01X5819400Y1356595D03*
G01X6344800Y1381995D03*
G01X6895600Y1432795D03*
G01X7395600Y1432795D03*
G01X7895600Y1356595D03*
G01X2870200Y510595D03*
G01X3395600Y332795D03*
G01X3895600Y332795D03*
G01X3379600Y154995D03*
G01X4895600Y332795D03*
G01X5395600Y332795D03*
G01X5819400Y256595D03*
G01X6344800Y281995D03*
G01X6895600Y332795D03*
G01X7395600Y332795D03*
G01X7895600Y256595D03*
G01X119393Y2990901D03*
G01X304803Y3848103D03*
G01X123779Y2271286D03*
G01X504779Y1890286D03*
G01X1139779Y1534686D03*
G01X990600Y4889500D03*
G01X1716000Y4737100D03*
G01X1589000Y3560900D03*
G01X1589000Y3408500D03*
G01X1589000Y2367100D03*
G01X7812800Y4660900D03*
G01X2314400Y4610100D03*
G01X2336803Y3848095D03*
G01X2517600Y2359300D03*
G01X2797000Y2283100D03*
G01X2289000Y1259300D03*
G01X2289000Y878300D03*
G01X2150800Y3873500D03*
G01X3587400Y3586300D03*
G01X4236600Y3213100D03*
G01X4962000Y3162300D03*
G01X5789000Y2697300D03*
G01X6311200Y2333900D03*
G01X6858800Y2206900D03*
G01X592595Y2281692D03*
G01X490995Y1570492D03*
G01X442295Y2739789D03*
G01X812803Y2832097D03*
G01X812803Y1612897D03*
G01X1803400Y3166605D03*
G01X1905000Y3065005D03*
G01X2108200Y2312805D03*
G01X1625600Y2287405D03*
G01X965200Y2895600D03*
G01X965200Y2717800D03*
G01X1422400Y2324092D03*
G01X1524000Y1899518D03*
G01X660403Y5118097D03*
G01X719595Y1553705D03*
G04 Via End*

G04 Track Start*
G54D20*
G01X2971800Y4808995D02*
G01X2844800Y4681995D01*
G01X3471800Y4808995D02*
G01X3217800Y4554995D01*
G01X2913000Y4554995D01*
G01X2760600Y4402595D01*
G01X3971800Y4808995D02*
G01X3870200Y4910595D01*
G01X3413000Y4910595D01*
G01X3108200Y4605795D01*
G01X2854200Y4605795D01*
G01X2727200Y4478795D01*
G01X4471800Y4808995D02*
G01X4319400Y4656595D01*
G01X4971800Y4808995D02*
G01X4667000Y4808995D01*
G01X4387600Y4529595D01*
G01X4260600Y4529595D01*
G01X5471800Y4808995D02*
G01X5395600Y4732795D01*
G01X5971800Y4808995D02*
G01X5819400Y4656595D01*
G01X6471800Y4808995D02*
G01X6344800Y4681995D01*
G01X6971800Y4808995D02*
G01X6895600Y4732795D01*
G01X7471800Y4808995D02*
G01X7395600Y4732795D01*
G01X7971800Y4808995D02*
G01X7971800Y4732795D01*
G01X7895600Y4656595D01*
G01X2971800Y3708995D02*
G01X2844800Y3581995D01*
G01X3471800Y3708995D02*
G01X3294000Y3531195D01*
G01X2913000Y3531195D01*
G01X2379600Y3124795D02*
G01X2354200Y3099395D01*
G01X2176400Y3099395D01*
G01X2074800Y3200995D01*
G01X3971800Y3708995D02*
G01X3870200Y3810595D01*
G01X2905000Y3810595D01*
G01X2676400Y3581995D01*
G01X4471800Y3708995D02*
G01X4217800Y3454995D01*
G01X3557400Y3454995D01*
G01X4971800Y3708995D02*
G01X4870200Y3810595D01*
G01X4413000Y3810595D01*
G01X4235200Y3632795D01*
G01X5471800Y3708995D02*
G01X5141600Y3708995D01*
G01X4862200Y3429595D01*
G01X5971800Y3708995D02*
G01X5819400Y3556595D01*
G01X6471800Y3708995D02*
G01X6344800Y3581995D01*
G01X6971800Y3708995D02*
G01X6895600Y3632795D01*
G01X7471800Y3708995D02*
G01X7395600Y3632795D01*
G01X7971800Y3708995D02*
G01X7971800Y3632795D01*
G01X7895600Y3556595D01*
G01X2971800Y2608995D02*
G01X2946400Y2583595D01*
G01X2184400Y2583595D01*
G01X2133600Y2532795D01*
G01X3471800Y2608995D02*
G01X3319400Y2456595D01*
G01X2862200Y2456595D01*
G01X3971800Y2608995D02*
G01X3895600Y2532795D01*
G01X3137905Y2079900D02*
G01X2477505Y2079900D01*
G01X2452105Y2054500D01*
G01X4471800Y2608995D02*
G01X4319400Y2456595D01*
G01X3430400Y2456595D01*
G01X4971800Y2608995D02*
G01X4895600Y2532795D01*
G01X4540000Y2079900D02*
G01X4184400Y2079900D01*
G01X5471800Y2608995D02*
G01X5319400Y2456595D01*
G01X4684400Y2456595D01*
G01X5971800Y2608995D02*
G01X5819400Y2456595D01*
G01X6471800Y2608995D02*
G01X6344800Y2481995D01*
G01X6971800Y2608995D02*
G01X6895600Y2532795D01*
G01X7471800Y2608995D02*
G01X7395600Y2532795D01*
G01X7971800Y2608995D02*
G01X7971800Y2532795D01*
G01X7895600Y2456595D01*
G01X2971800Y1508995D02*
G01X2844800Y1381995D01*
G01X3471800Y1508995D02*
G01X3141600Y1508995D01*
G01X2887600Y1254995D01*
G01X3971800Y1508995D02*
G01X3870200Y1610595D01*
G01X2868895Y1610595D01*
G01X2437095Y1178795D01*
G01X4471800Y1508995D02*
G01X4217800Y1254995D01*
G01X3379600Y1254995D01*
G01X3354200Y1229595D01*
G01X4971800Y1508995D02*
G01X4870200Y1610595D01*
G01X4413000Y1610595D01*
G01X4235200Y1432795D01*
G01X5471800Y1508995D02*
G01X5141600Y1508995D01*
G01X4862200Y1229595D01*
G01X5971800Y1508995D02*
G01X5819400Y1356595D01*
G01X6471800Y1508995D02*
G01X6344800Y1381995D01*
G01X6971800Y1508995D02*
G01X6895600Y1432795D01*
G01X7471800Y1508995D02*
G01X7395600Y1432795D01*
G01X7971800Y1508995D02*
G01X7971800Y1432795D01*
G01X7895600Y1356595D01*
G01X2971800Y408995D02*
G01X2870200Y510595D01*
G01X3471800Y408995D02*
G01X3395600Y332795D01*
G01X3971800Y408995D02*
G01X3895600Y332795D01*
G01X4471800Y408995D02*
G01X4217800Y154995D01*
G01X3379600Y154995D01*
G01X4971800Y408995D02*
G01X4895600Y332795D01*
G01X5471800Y408995D02*
G01X5395600Y332795D01*
G01X5971800Y408995D02*
G01X5819400Y256595D01*
G01X6471800Y408995D02*
G01X6344800Y281995D01*
G01X6971800Y408995D02*
G01X6895600Y332795D01*
G01X7471800Y408995D02*
G01X7395600Y332795D01*
G01X7971800Y408995D02*
G01X7971800Y332795D01*
G01X7895600Y256595D01*
G01X736603Y3721100D02*
G01X412128Y3396625D01*
G01X412128Y3213455D01*
G01X119393Y2990901D02*
G01X119393Y3210432D01*
G01X116370Y3213455D01*
G01X736603Y4229103D02*
G01X685803Y4229103D01*
G01X304803Y3848103D01*
G01X123779Y2271286D02*
G01X123779Y2105545D01*
G01X504779Y1890286D02*
G01X654933Y1890286D01*
G01X738147Y1807072D01*
G01X1139779Y1534686D02*
G01X1139779Y1597446D01*
G01X1347747Y1805413D01*
G01X203200Y4241800D02*
G01X76200Y4368800D01*
G01X76200Y4597400D01*
G01X469900Y4991100D01*
G01X736603Y4991100D01*
G01X990600Y4889500D02*
G01X2158995Y4889500D01*
G01X2260603Y4991108D01*
G01X1716000Y4737100D02*
G01X2260600Y4737100D01*
G01X1589000Y3560900D02*
G01X1589000Y3408500D01*
G01X1589000Y2367100D01*
G01X7812800Y4660900D02*
G01X7228603Y5245097D01*
G01X2260600Y5245097D01*
G01X2314400Y4610100D02*
G01X2416000Y4508500D01*
G01X2416000Y4130492D01*
G01X2260603Y3975095D01*
G01X2260603Y3924295D01*
G01X2336803Y3848095D01*
G01X2517600Y2359300D02*
G01X2720800Y2359300D01*
G01X2797000Y2283100D01*
G01X2289000Y1259300D02*
G01X2289000Y878300D01*
G01X2150800Y3873500D02*
G01X2150800Y3830897D01*
G01X2260597Y3721100D01*
G01X3587400Y3586300D02*
G01X3468198Y3467097D01*
G01X2260603Y3467097D01*
G01X4236600Y3213100D02*
G01X2260610Y3213100D01*
G01X4962000Y3162300D02*
G01X4758800Y2959100D01*
G01X2260603Y2959100D01*
G01X5789000Y2697300D02*
G01X2268405Y2697300D01*
G01X2260603Y2705103D01*
G01X6311200Y2333900D02*
G01X6270200Y2374900D01*
G01X2841200Y2374900D01*
G01X2765000Y2451100D01*
G01X2260603Y2451100D01*
G01X6858800Y2206900D02*
G01X6620403Y1968503D01*
G01X2429403Y1968503D01*
G01X2260597Y2137308D01*
G01X2260597Y2197103D01*
G01X736603Y2959100D02*
G01X592595Y2815092D01*
G01X592595Y2281692D01*
G01X490995Y1570492D02*
G01X490995Y-32906D01*
G01X719595Y-261506D01*
G01X203200Y4495800D02*
G01X495305Y4495800D01*
G01X736603Y4737097D01*
G01X990600Y4483100D01*
G01X2260603Y4483100D01*
G01X2260603Y4229108D01*
G01X442295Y2739789D02*
G01X442295Y2105545D01*
G01X416895Y2080145D01*
G01X416895Y1749945D01*
G01X719595Y1447245D01*
G01X719595Y388506D01*
G01X736603Y3975095D02*
G01X304803Y3543295D01*
G01X304803Y-63505D01*
G01X680603Y-439306D01*
G01X1591805Y-439306D01*
G01X1769605Y-261506D01*
G01X736603Y3213100D02*
G01X508003Y2984500D01*
G01X508003Y2247900D01*
G01X609603Y2146300D01*
G01X609603Y2120900D01*
G01X736603Y1993900D01*
G01X762003Y1993900D01*
G01X939803Y1816100D01*
G01X939803Y1638300D01*
G01X1769605Y808497D01*
G01X1769605Y388506D01*
G01X736603Y3467097D02*
G01X914403Y3289297D01*
G01X914403Y2933697D01*
G01X812803Y2832097D01*
G01X812803Y1612897D02*
G01X1651003Y774697D01*
G01X1651003Y227099D01*
G01X1769605Y108496D01*
G01X2971800Y4462005D02*
G01X3471800Y4462005D01*
G01X3971800Y4462005D01*
G01X4471800Y4462005D01*
G01X4971800Y4462005D01*
G01X5471800Y4462005D01*
G01X5971800Y4462005D01*
G01X6471800Y4462005D01*
G01X6971800Y4462005D01*
G01X7471800Y4462005D01*
G01X7971800Y4462005D01*
G01X2971800Y4462005D02*
G01X2971800Y4233405D01*
G01X2336800Y3598405D01*
G01X2209800Y3598405D01*
G01X2006600Y3395205D01*
G01X2006600Y3369805D01*
G01X1803400Y3166605D01*
G01X1905000Y3065005D02*
G01X1854200Y3014205D01*
G01X1854200Y2349495D01*
G01X2006597Y2197097D01*
G01X2971800Y3362005D02*
G01X3471800Y3362005D01*
G01X3971800Y3362005D01*
G01X4471800Y3362005D01*
G01X4971800Y3362005D01*
G01X5471800Y3362005D01*
G01X5971800Y3362005D01*
G01X6471800Y3362005D01*
G01X6971800Y3362005D01*
G01X7471800Y3362005D01*
G01X7971800Y3362005D01*
G01X2971800Y3362005D02*
G01X2946400Y3336605D01*
G01X2082800Y3336605D01*
G01X1752603Y3006408D01*
G01X1752603Y2197103D01*
G01X2971800Y2262005D02*
G01X3471800Y2262005D01*
G01X3971800Y2262005D01*
G01X4471800Y2262005D01*
G01X4971800Y2262005D01*
G01X5471800Y2262005D01*
G01X5971800Y2262005D01*
G01X6471800Y2262005D01*
G01X6497200Y2287405D01*
G01X6946400Y2287405D01*
G01X6971800Y2262005D01*
G01X7471800Y2262005D01*
G01X7971800Y2262005D01*
G01X2971800Y2262005D02*
G01X2921000Y2211205D01*
G01X2438400Y2211205D01*
G01X2336800Y2312805D01*
G01X2108200Y2312805D01*
G01X1625600Y2287405D02*
G01X1588905Y2287405D01*
G01X1498600Y2197100D01*
G01X2971800Y1162005D02*
G01X3471800Y1162005D01*
G01X3971800Y1162005D01*
G01X4471800Y1162005D01*
G01X4971800Y1162005D01*
G01X5471800Y1162005D01*
G01X5971800Y1162005D01*
G01X6471800Y1162005D01*
G01X6971800Y1162005D01*
G01X7471800Y1162005D01*
G01X7971800Y1162005D01*
G01X2971800Y1162005D02*
G01X2921000Y1111205D01*
G01X2413000Y1111205D01*
G01X2362200Y1162005D01*
G01X2362200Y1289005D01*
G01X1574800Y2076405D01*
G01X1365295Y2076405D01*
G01X1244597Y2197103D01*
G01X2971800Y62005D02*
G01X3471800Y62005D01*
G01X3971800Y62005D01*
G01X4471800Y62005D01*
G01X4971800Y62005D01*
G01X5471800Y62005D01*
G01X5971800Y62005D01*
G01X6471800Y62005D01*
G01X6971800Y62005D01*
G01X7471800Y62005D01*
G01X7971800Y62005D01*
G01X2971800Y62005D02*
G01X1447800Y1586005D01*
G01X1447800Y1916205D01*
G01X1295400Y2068605D01*
G01X1119102Y2068605D01*
G01X990605Y2197103D01*
G01X203200Y3733800D02*
G01X304800Y3733800D01*
G01X660400Y4089400D01*
G01X812800Y4089400D01*
G01X965200Y3937000D01*
G01X965200Y2895600D01*
G01X965200Y2717800D02*
G01X965200Y2425700D01*
G01X736603Y2197103D01*
G01X736603Y2104374D01*
G01X1033904Y1807072D01*
G01X203200Y3987800D02*
G01X558800Y4343400D01*
G01X812800Y4343400D01*
G01X1041400Y4114800D01*
G01X1041400Y2857492D01*
G01X965200Y2781292D02*
G01X914400Y2781292D01*
G01X838203Y2705095D01*
G01X736603Y2705095D01*
G01X990600Y2806692D02*
G01X1422400Y2374892D01*
G01X1422400Y2324092D01*
G01X1524000Y1899518D02*
G01X1549400Y1899518D01*
G01X1643504Y1805413D01*
G01X736603Y5245097D02*
G01X736603Y5194297D01*
G01X660403Y5118097D01*
G01X719595Y1553705D02*
G01X846595Y1426705D01*
G01X846595Y235496D01*
G01X719595Y108496D01*
G01X1041400Y2857492D02*
G01X990600Y2806692D01*
G01X965200Y2781292D01*
G04 Track End*

M02*

