G04 Layer: TopPasteMaskLayer*
G04 EasyEDA Pro v3.2.148, 2026-06-20 15:30:05*
G04 Gerber Generator version 0.3*
G04 Scale: 100 percent, Rotated: No, Reflected: No*
G04 Dimensions in millimeters*
G04 Leading zeros omitted, absolute positions, 4 integers and 5 decimals*
G04 Generated by one-click*
G04 Object Configs: Pad,Via,Track,Text,Image,Dimension,BoardOutline,BoardCutout,CopperFilled,SolidRegion,FPCStiffener,Line,PlaneZone,ComponentProperty,ComponentSilkscreen,TearDrop*
G04 Layer Configs: 1,2,3,4,5,6,7,8,9,10,11,13,14,71,72,56*
G04 Copper Areas: 0*
%FSLAX45Y45*%
%MOMM*%
%ADD10R,1.2X1.6*%
%ADD11R,1.7X1.3*%
%ADD12C,0.6536*%
G75*


G04 Pad Start*
G54D10*
G01X144793Y2393899D03*
G01X464807Y2393899D03*
G01X464807Y2863901D03*
G01X144793Y2863901D03*
G54D11*
G01X889000Y4356100D03*
G01X889000Y4787900D03*
G01X1589000Y4356100D03*
G01X1589000Y4787900D03*
G01X2289000Y4356100D03*
G01X2289000Y4787900D03*
G01X2989000Y4356100D03*
G01X2989000Y4787900D03*
G01X3689000Y4356100D03*
G01X3689000Y4787900D03*
G01X4389000Y4356100D03*
G01X4389000Y4787900D03*
G01X5089000Y4356100D03*
G01X5089000Y4787900D03*
G01X5789000Y4356100D03*
G01X5789000Y4787900D03*
G01X6489000Y4356100D03*
G01X6489000Y4787900D03*
G01X7189000Y4356100D03*
G01X7189000Y4787900D03*
G01X7889000Y4356100D03*
G01X7889000Y4787900D03*
G01X889000Y3256100D03*
G01X889000Y3687900D03*
G01X1589000Y3256100D03*
G01X1589000Y3687900D03*
G01X2289000Y3256100D03*
G01X2289000Y3687900D03*
G01X2989000Y3256100D03*
G01X2989000Y3687900D03*
G01X3689000Y3256100D03*
G01X3689000Y3687900D03*
G01X4389000Y3256100D03*
G01X4389000Y3687900D03*
G01X5089000Y3256100D03*
G01X5089000Y3687900D03*
G01X5789000Y3256100D03*
G01X5789000Y3687900D03*
G01X6489000Y3256100D03*
G01X6489000Y3687900D03*
G01X7189000Y3256100D03*
G01X7189000Y3687900D03*
G01X7889000Y3256100D03*
G01X7889000Y3687900D03*
G01X889000Y2156100D03*
G01X889000Y2587900D03*
G01X1589000Y2156100D03*
G01X1589000Y2587900D03*
G01X2289000Y2156100D03*
G01X2289000Y2587900D03*
G01X2989000Y2156100D03*
G01X2989000Y2587900D03*
G01X3689000Y2156100D03*
G01X3689000Y2587900D03*
G01X4389000Y2156100D03*
G01X4389000Y2587900D03*
G01X5089000Y2156100D03*
G01X5089000Y2587900D03*
G01X5789000Y2156100D03*
G01X5789000Y2587900D03*
G01X6489000Y2156100D03*
G01X6489000Y2587900D03*
G01X7189000Y2156100D03*
G01X7189000Y2587900D03*
G01X7889000Y2156100D03*
G01X7889000Y2587900D03*
G01X889000Y1056100D03*
G01X889000Y1487900D03*
G01X1589000Y1056100D03*
G01X1589000Y1487900D03*
G01X2289000Y1056100D03*
G01X2289000Y1487900D03*
G01X2989000Y1056100D03*
G01X2989000Y1487900D03*
G01X3689000Y1056100D03*
G01X3689000Y1487900D03*
G01X4389000Y1056100D03*
G01X4389000Y1487900D03*
G01X5089000Y1056100D03*
G01X5089000Y1487900D03*
G01X5789000Y1056100D03*
G01X5789000Y1487900D03*
G01X6489000Y1056100D03*
G01X6489000Y1487900D03*
G01X7189000Y1056100D03*
G01X7189000Y1487900D03*
G01X7889000Y1056100D03*
G01X7889000Y1487900D03*
G01X317500Y1054100D03*
G01X317500Y1485900D03*
G01X319000Y-43900D03*
G01X319000Y387900D03*
G01X2289000Y-43900D03*
G01X2289000Y387900D03*
G01X2989000Y-43900D03*
G01X2989000Y387900D03*
G01X3689000Y-43900D03*
G01X3689000Y387900D03*
G01X4389000Y-43900D03*
G01X4389000Y387900D03*
G01X5089000Y-43900D03*
G01X5089000Y387900D03*
G01X5789000Y-43900D03*
G01X5789000Y387900D03*
G01X6489000Y-43900D03*
G01X6489000Y387900D03*
G01X7189000Y-43900D03*
G01X7189000Y387900D03*
G01X7889000Y-43900D03*
G01X7889000Y387900D03*
G04 Pad End*

M02*

