G04 Layer: BottomSolderMaskLayer*
G04 EasyEDA Pro v3.2.148, 2026-06-20 15:30:05*
G04 Gerber Generator version 0.3*
G04 Scale: 100 percent, Rotated: No, Reflected: No*
G04 Dimensions in millimeters*
G04 Leading zeros omitted, absolute positions, 4 integers and 5 decimals*
G04 Generated by one-click*
G04 Object Configs: Pad,Via,Track,Text,Image,Dimension,BoardOutline,BoardCutout,CopperFilled,SolidRegion,FPCStiffener,Line,PlaneZone,ComponentProperty,ComponentSilkscreen,TearDrop*
G04 Layer Configs: 1,2,3,4,5,6,7,8,9,10,11,13,14,71,72,56*
G04 Copper Areas: 0*
%FSLAX45Y45*%
%MOMM*%
%AMRoundRect*1,1,$1,$2,$3*1,1,$1,$4,$5*1,1,$1,0-$2,0-$3*1,1,$1,0-$4,0-$5*20,1,$1,$2,$3,$4,$5,0*20,1,$1,$4,$5,0-$2,0-$3,0*20,1,$1,0-$2,0-$3,0-$4,0-$5,0*20,1,$1,0-$4,0-$5,$2,$3,0*4,1,4,$2,$3,$4,$5,0-$2,0-$3,0-$4,0-$5,$2,$3,0*%
%ADD10RoundRect,0.1016X-0.85X-0.85X-0.85X0.85*%
%ADD11C,1.8016*%
%ADD12O,1.70002X2.60002*%
%ADD13RoundRect,0.1016X-0.74251X0.86399X0.74251X0.86399*%
%ADD14RoundRect,0.1016X-0.60376X0.85051X0.60376X0.85051*%
%ADD15RoundRect,0.1016X-0.5X-0.55X-0.5X0.55*%
%ADD16O,2.1016X1.7016*%
%ADD17C,2.1035*%
%ADD18C,2.1016*%
G75*


G04 Pad Start*
G54D10*
G01X203200Y4495800D03*
G54D11*
G01X203200Y4241800D03*
G01X203200Y3987800D03*
G01X203200Y3733800D03*
G54D12*
G01X719595Y388506D03*
G01X719595Y108496D03*
G01X719595Y-261506D03*
G01X1769605Y-261506D03*
G01X1769605Y108496D03*
G01X1769605Y388506D03*
G54D13*
G01X123779Y2105545D03*
G01X442295Y2105545D03*
G54D14*
G01X116370Y3213455D03*
G01X412128Y3213455D03*
G01X738147Y1807072D03*
G01X1033904Y1807072D03*
G01X1347747Y1805413D03*
G01X1643504Y1805413D03*
G54D15*
G01X2971800Y4808995D03*
G01X2971800Y4462005D03*
G01X3471800Y4808995D03*
G01X3471800Y4462005D03*
G01X3971800Y4808995D03*
G01X3971800Y4462005D03*
G01X4471800Y4808995D03*
G01X4471800Y4462005D03*
G01X4971800Y4808995D03*
G01X4971800Y4462005D03*
G01X5471800Y4808995D03*
G01X5471800Y4462005D03*
G01X5971800Y4808995D03*
G01X5971800Y4462005D03*
G01X6471800Y4808995D03*
G01X6471800Y4462005D03*
G01X6971800Y4808995D03*
G01X6971800Y4462005D03*
G01X7471800Y4808995D03*
G01X7471800Y4462005D03*
G01X7971800Y4808995D03*
G01X7971800Y4462005D03*
G01X2971800Y3708995D03*
G01X2971800Y3362005D03*
G01X3471800Y3708995D03*
G01X3471800Y3362005D03*
G01X3971800Y3708995D03*
G01X3971800Y3362005D03*
G01X4471800Y3708995D03*
G01X4471800Y3362005D03*
G01X4971800Y3708995D03*
G01X4971800Y3362005D03*
G54D16*
G01X2260600Y5245097D03*
G01X2260603Y4991108D03*
G01X2260603Y4737097D03*
G01X2260603Y4483100D03*
G01X2260597Y4229103D03*
G01X2260603Y3975095D03*
G01X2260597Y3721100D03*
G01X2260603Y3467097D03*
G01X2260603Y3213108D03*
G01X2260603Y2959100D03*
G01X2260603Y2705103D03*
G01X2260603Y2451100D03*
G01X2260597Y2197103D03*
G01X736603Y2197103D03*
G01X736603Y2451100D03*
G01X736603Y2705095D03*
G01X736603Y2959100D03*
G01X736603Y3213100D03*
G01X736603Y3467097D03*
G01X736603Y3721100D03*
G01X736603Y3975095D03*
G01X736603Y4229103D03*
G01X736603Y4483100D03*
G01X736603Y4737097D03*
G01X736603Y4991100D03*
G01X736603Y5245097D03*
G01X2006597Y2197097D03*
G01X1752603Y2197103D03*
G01X1498600Y2197100D03*
G01X1244597Y2197103D03*
G01X990605Y2197103D03*
G01X2006595Y2451103D03*
G54D15*
G01X5471800Y3708995D03*
G01X5471800Y3362005D03*
G01X5971800Y3708995D03*
G01X5971800Y3362005D03*
G01X6471800Y3708995D03*
G01X6471800Y3362005D03*
G01X6971800Y3708995D03*
G01X6971800Y3362005D03*
G01X7471800Y3708995D03*
G01X7471800Y3362005D03*
G01X7971800Y3708995D03*
G01X7971800Y3362005D03*
G01X2971800Y2608995D03*
G01X2971800Y2262005D03*
G01X3471800Y2608995D03*
G01X3471800Y2262005D03*
G01X3971800Y2608995D03*
G01X3971800Y2262005D03*
G01X4471800Y2608995D03*
G01X4471800Y2262005D03*
G01X4971800Y2608995D03*
G01X4971800Y2262005D03*
G01X5471800Y2608995D03*
G01X5471800Y2262005D03*
G01X5971800Y2608995D03*
G01X5971800Y2262005D03*
G01X6471800Y2608995D03*
G01X6471800Y2262005D03*
G01X6971800Y2608995D03*
G01X6971800Y2262005D03*
G01X7471800Y2608995D03*
G01X7471800Y2262005D03*
G01X7971800Y2608995D03*
G01X7971800Y2262005D03*
G01X2971800Y1508995D03*
G01X2971800Y1162005D03*
G01X3471800Y1508995D03*
G01X3471800Y1162005D03*
G01X3971800Y1508995D03*
G01X3971800Y1162005D03*
G01X4471800Y1508995D03*
G01X4471800Y1162005D03*
G01X4971800Y1508995D03*
G01X4971800Y1162005D03*
G01X5471800Y1508995D03*
G01X5471800Y1162005D03*
G01X5971800Y1508995D03*
G01X5971800Y1162005D03*
G01X6471800Y1508995D03*
G01X6471800Y1162005D03*
G01X6971800Y1508995D03*
G01X6971800Y1162005D03*
G01X7471800Y1508995D03*
G01X7471800Y1162005D03*
G01X7971800Y1508995D03*
G01X7971800Y1162005D03*
G01X2971800Y408995D03*
G01X2971800Y62005D03*
G01X3471800Y408995D03*
G01X3471800Y62005D03*
G01X3971800Y408995D03*
G01X3971800Y62005D03*
G01X4471800Y408995D03*
G01X4471800Y62005D03*
G01X4971800Y408995D03*
G01X4971800Y62005D03*
G01X5471800Y408995D03*
G01X5471800Y62005D03*
G01X5971800Y408995D03*
G01X5971800Y62005D03*
G01X6471800Y408995D03*
G01X6471800Y62005D03*
G01X6971800Y408995D03*
G01X6971800Y62005D03*
G01X7471800Y408995D03*
G01X7471800Y62005D03*
G01X7971800Y408995D03*
G01X7971800Y62005D03*
G54D18*
G01X215900Y5194300D03*
G01X8279400Y5194300D03*
G01X215900Y-389900D03*
G01X8279400Y-389900D03*
G04 Pad End*

M02*

