<svg xmlns="http://www.w3.org/2000/svg" width="1152" height="552" viewBox="0 0 1152 552" font-family="Helvetica,Arial,sans-serif"><rect width="1152" height="552" fill="#ffffff"/><text x="28" y="44" font-size="26" font-weight="700" fill="#111">minikb — keymap</text><text x="28" y="72" font-size="13" fill="#6b7280">Centro = BASE · alto-destra (blu) = Sym · basso-destra (grigio) = Fn · Fn=blu / Sym=verde (LED) · layout Italian - Pro</text><rect x="120" y="104" width="84" height="64" rx="9" fill="#fafafa" stroke="#cfcfcf"/><text x="162" y="142" font-size="16" font-weight="600" fill="#111" text-anchor="middle">1</text><text x="199" y="119" font-size="10" fill="#2563eb" text-anchor="end">ESC</text><text x="199" y="162" font-size="10" fill="#6b7280" text-anchor="end">F1</text><rect x="212" y="104" width="84" height="64" rx="9" fill="#fafafa" stroke="#cfcfcf"/><text x="254" y="142" font-size="16" font-weight="600" fill="#111" text-anchor="middle">2</text><text x="291" y="119" font-size="10" fill="#2563eb" text-anchor="end">!</text><text x="291" y="162" font-size="10" fill="#6b7280" text-anchor="end">F2</text><rect x="304" y="104" width="84" height="64" rx="9" fill="#fafafa" stroke="#cfcfcf"/><text x="346" y="142" font-size="16" font-weight="600" fill="#111" text-anchor="middle">3</text><text x="383" y="119" font-size="10" fill="#2563eb" text-anchor="end">&quot;</text><text x="383" y="162" font-size="10" fill="#6b7280" text-anchor="end">F3</text><rect x="396" y="104" width="84" height="64" rx="9" fill="#fafafa" stroke="#cfcfcf"/><text x="438" y="142" font-size="16" font-weight="600" fill="#111" text-anchor="middle">4</text><text x="475" y="119" font-size="10" fill="#2563eb" text-anchor="end">£</text><text x="475" y="162" font-size="10" fill="#6b7280" text-anchor="end">F4</text><rect x="488" y="104" width="84" height="64" rx="9" fill="#fafafa" stroke="#cfcfcf"/><text x="530" y="142" font-size="16" font-weight="600" fill="#111" text-anchor="middle">5</text><text x="567" y="119" font-size="10" fill="#2563eb" text-anchor="end">$</text><text x="567" y="162" font-size="10" fill="#6b7280" text-anchor="end">F5</text><rect x="580" y="104" width="84" height="64" rx="9" fill="#fafafa" stroke="#cfcfcf"/><text x="622" y="142" font-size="16" font-weight="600" fill="#111" text-anchor="middle">6</text><text x="659" y="119" font-size="10" fill="#2563eb" text-anchor="end">%</text><text x="659" y="162" font-size="10" fill="#6b7280" text-anchor="end">F6</text><rect x="672" y="104" width="84" height="64" rx="9" fill="#fafafa" stroke="#cfcfcf"/><text x="714" y="142" font-size="16" font-weight="600" fill="#111" text-anchor="middle">7</text><text x="751" y="119" font-size="10" fill="#2563eb" text-anchor="end">&amp;</text><text x="751" y="162" font-size="10" fill="#6b7280" text-anchor="end">F7</text><rect x="764" y="104" width="84" height="64" rx="9" fill="#fafafa" stroke="#cfcfcf"/><text x="806" y="142" font-size="16" font-weight="600" fill="#111" text-anchor="middle">8</text><text x="843" y="119" font-size="10" fill="#2563eb" text-anchor="end">(</text><text x="843" y="162" font-size="10" fill="#6b7280" text-anchor="end">F8</text><rect x="856" y="104" width="84" height="64" rx="9" fill="#fafafa" stroke="#cfcfcf"/><text x="898" y="142" font-size="16" font-weight="600" fill="#111" text-anchor="middle">9</text><text x="935" y="119" font-size="10" fill="#2563eb" text-anchor="end">)</text><text x="935" y="162" font-size="10" fill="#6b7280" text-anchor="end">F9</text><rect x="948" y="104" width="84" height="64" rx="9" fill="#fafafa" stroke="#cfcfcf"/><text x="990" y="142" font-size="16" font-weight="600" fill="#111" text-anchor="middle">0</text><text x="1027" y="119" font-size="10" fill="#2563eb" text-anchor="end">?</text><text x="1027" y="162" font-size="10" fill="#6b7280" text-anchor="end">F10</text><rect x="1040" y="104" width="84" height="64" rx="9" fill="#fafafa" stroke="#cfcfcf"/><text x="1082" y="142" font-size="16" font-weight="600" fill="#111" text-anchor="middle">Bksp</text><text x="1119" y="119" font-size="10" fill="#2563eb" text-anchor="end">DEL</text><text x="1119" y="162" font-size="10" fill="#6b7280" text-anchor="end">DEL</text><rect x="120" y="176" width="84" height="64" rx="9" fill="#fafafa" stroke="#cfcfcf"/><text x="162" y="214" font-size="16" font-weight="600" fill="#111" text-anchor="middle">TAB</text><text x="199" y="191" font-size="10" fill="#2563eb" text-anchor="end">`</text><text x="199" y="234" font-size="10" fill="#6b7280" text-anchor="end">F11</text><rect x="212" y="176" width="84" height="64" rx="9" fill="#fafafa" stroke="#cfcfcf"/><text x="254" y="214" font-size="16" font-weight="600" fill="#111" text-anchor="middle">q</text><text x="291" y="191" font-size="10" fill="#2563eb" text-anchor="end">@</text><text x="291" y="234" font-size="10" fill="#6b7280" text-anchor="end">F12</text><rect x="304" y="176" width="84" height="64" rx="9" fill="#fafafa" stroke="#cfcfcf"/><text x="346" y="214" font-size="16" font-weight="600" fill="#111" text-anchor="middle">w</text><text x="383" y="191" font-size="10" fill="#2563eb" text-anchor="end">#</text><rect x="396" y="176" width="84" height="64" rx="9" fill="#fafafa" stroke="#cfcfcf"/><text x="438" y="214" font-size="16" font-weight="600" fill="#111" text-anchor="middle">e</text><text x="475" y="191" font-size="10" fill="#2563eb" text-anchor="end">§</text><rect x="488" y="176" width="84" height="64" rx="9" fill="#fafafa" stroke="#cfcfcf"/><text x="530" y="214" font-size="16" font-weight="600" fill="#111" text-anchor="middle">r</text><text x="567" y="191" font-size="10" fill="#2563eb" text-anchor="end">{</text><rect x="580" y="176" width="84" height="64" rx="9" fill="#fafafa" stroke="#cfcfcf"/><text x="622" y="214" font-size="16" font-weight="600" fill="#111" text-anchor="middle">t</text><text x="659" y="191" font-size="10" fill="#2563eb" text-anchor="end">}</text><rect x="672" y="176" width="84" height="64" rx="9" fill="#fafafa" stroke="#cfcfcf"/><text x="714" y="214" font-size="16" font-weight="600" fill="#111" text-anchor="middle">y</text><text x="751" y="191" font-size="10" fill="#2563eb" text-anchor="end">∞</text><rect x="764" y="176" width="84" height="64" rx="9" fill="#fafafa" stroke="#cfcfcf"/><text x="806" y="214" font-size="16" font-weight="600" fill="#111" text-anchor="middle">u</text><text x="843" y="191" font-size="10" fill="#2563eb" text-anchor="end">◊</text><text x="843" y="234" font-size="10" fill="#6b7280" text-anchor="end">PGUP</text><rect x="856" y="176" width="84" height="64" rx="9" fill="#fafafa" stroke="#cfcfcf"/><text x="898" y="214" font-size="16" font-weight="600" fill="#111" text-anchor="middle">i</text><text x="935" y="191" font-size="10" fill="#2563eb" text-anchor="end">+</text><text x="935" y="234" font-size="10" fill="#6b7280" text-anchor="end">HOME</text><rect x="948" y="176" width="84" height="64" rx="9" fill="#fafafa" stroke="#cfcfcf"/><text x="990" y="214" font-size="16" font-weight="600" fill="#111" text-anchor="middle">o</text><text x="1027" y="191" font-size="10" fill="#2563eb" text-anchor="end">-</text><rect x="1040" y="176" width="84" height="64" rx="9" fill="#fafafa" stroke="#cfcfcf"/><text x="1082" y="214" font-size="16" font-weight="600" fill="#111" text-anchor="middle">p</text><text x="1119" y="191" font-size="10" fill="#2563eb" text-anchor="end">*</text><text x="1119" y="234" font-size="10" fill="#6b7280" text-anchor="end">PrtSc</text><rect x="120" y="248" width="84" height="64" rx="9" fill="#fafafa" stroke="#cfcfcf"/><text x="162" y="286" font-size="16" font-weight="600" fill="#111" text-anchor="middle">CAPS</text><rect x="212" y="248" width="84" height="64" rx="9" fill="#fafafa" stroke="#cfcfcf"/><text x="254" y="286" font-size="16" font-weight="600" fill="#111" text-anchor="middle">a</text><text x="291" y="263" font-size="10" fill="#2563eb" text-anchor="end">CTRL</text><rect x="304" y="248" width="84" height="64" rx="9" fill="#fafafa" stroke="#cfcfcf"/><text x="346" y="286" font-size="16" font-weight="600" fill="#111" text-anchor="middle">s</text><text x="383" y="263" font-size="10" fill="#2563eb" text-anchor="end">ALT</text><text x="383" y="306" font-size="10" fill="#6b7280" text-anchor="end">VOLD</text><rect x="396" y="248" width="84" height="64" rx="9" fill="#fafafa" stroke="#cfcfcf"/><text x="438" y="286" font-size="16" font-weight="600" fill="#111" text-anchor="middle">d</text><text x="475" y="263" font-size="10" fill="#2563eb" text-anchor="end">GUI</text><text x="475" y="306" font-size="10" fill="#6b7280" text-anchor="end">VOLU</text><rect x="488" y="248" width="84" height="64" rx="9" fill="#fafafa" stroke="#cfcfcf"/><text x="530" y="286" font-size="16" font-weight="600" fill="#111" text-anchor="middle">f</text><text x="567" y="263" font-size="10" fill="#2563eb" text-anchor="end">|</text><rect x="580" y="248" width="84" height="64" rx="9" fill="#fafafa" stroke="#cfcfcf"/><text x="622" y="286" font-size="16" font-weight="600" fill="#111" text-anchor="middle">g</text><text x="659" y="263" font-size="10" fill="#2563eb" text-anchor="end">&lt;</text><rect x="672" y="248" width="84" height="64" rx="9" fill="#fafafa" stroke="#cfcfcf"/><text x="714" y="286" font-size="16" font-weight="600" fill="#111" text-anchor="middle">h</text><text x="751" y="263" font-size="10" fill="#2563eb" text-anchor="end">&gt;</text><rect x="764" y="248" width="84" height="64" rx="9" fill="#fafafa" stroke="#cfcfcf"/><text x="806" y="286" font-size="16" font-weight="600" fill="#111" text-anchor="middle">j</text><text x="843" y="263" font-size="10" fill="#2563eb" text-anchor="end">~</text><text x="843" y="306" font-size="10" fill="#6b7280" text-anchor="end">PGDN</text><rect x="856" y="248" width="84" height="64" rx="9" fill="#fafafa" stroke="#cfcfcf"/><text x="898" y="286" font-size="16" font-weight="600" fill="#111" text-anchor="middle">k</text><text x="935" y="306" font-size="10" fill="#6b7280" text-anchor="end">END</text><rect x="948" y="248" width="84" height="64" rx="9" fill="#fafafa" stroke="#cfcfcf"/><text x="990" y="286" font-size="16" font-weight="600" fill="#111" text-anchor="middle">l</text><rect x="1040" y="248" width="84" height="64" rx="9" fill="#fafafa" stroke="#cfcfcf"/><text x="1082" y="286" font-size="16" font-weight="600" fill="#111" text-anchor="middle">Enter</text><rect x="28" y="320" width="84" height="64" rx="9" fill="#dbeafe" stroke="#3b82f6"/><text x="70" y="358" font-size="16" font-weight="600" fill="#111" text-anchor="middle">FN</text><rect x="120" y="320" width="84" height="64" rx="9" fill="#fafafa" stroke="#cfcfcf"/><text x="162" y="358" font-size="16" font-weight="600" fill="#111" text-anchor="middle">SHIFT</text><rect x="212" y="320" width="84" height="64" rx="9" fill="#fafafa" stroke="#cfcfcf"/><text x="254" y="358" font-size="16" font-weight="600" fill="#111" text-anchor="middle">z</text><text x="291" y="378" font-size="10" fill="#6b7280" text-anchor="end">MUTE</text><rect x="304" y="320" width="84" height="64" rx="9" fill="#fafafa" stroke="#cfcfcf"/><text x="346" y="358" font-size="16" font-weight="600" fill="#111" text-anchor="middle">x</text><text x="383" y="378" font-size="10" fill="#6b7280" text-anchor="end">PLAY</text><rect x="396" y="320" width="84" height="64" rx="9" fill="#fafafa" stroke="#cfcfcf"/><text x="438" y="358" font-size="16" font-weight="600" fill="#111" text-anchor="middle">c</text><text x="475" y="378" font-size="10" fill="#6b7280" text-anchor="end">PREV</text><rect x="488" y="320" width="84" height="64" rx="9" fill="#fafafa" stroke="#cfcfcf"/><text x="530" y="358" font-size="16" font-weight="600" fill="#111" text-anchor="middle">v</text><text x="567" y="378" font-size="10" fill="#6b7280" text-anchor="end">NEXT</text><rect x="580" y="320" width="84" height="64" rx="9" fill="#fafafa" stroke="#cfcfcf"/><text x="622" y="358" font-size="16" font-weight="600" fill="#111" text-anchor="middle">b</text><rect x="672" y="320" width="84" height="64" rx="9" fill="#fafafa" stroke="#cfcfcf"/><text x="714" y="358" font-size="16" font-weight="600" fill="#111" text-anchor="middle">n</text><rect x="764" y="320" width="84" height="64" rx="9" fill="#fafafa" stroke="#cfcfcf"/><text x="806" y="358" font-size="16" font-weight="600" fill="#111" text-anchor="middle">m</text><rect x="856" y="320" width="84" height="64" rx="9" fill="#fafafa" stroke="#cfcfcf"/><text x="898" y="358" font-size="16" font-weight="600" fill="#111" text-anchor="middle">,</text><rect x="948" y="320" width="84" height="64" rx="9" fill="#fafafa" stroke="#cfcfcf"/><text x="990" y="358" font-size="16" font-weight="600" fill="#111" text-anchor="middle">.</text><rect x="1040" y="320" width="84" height="64" rx="9" fill="#fafafa" stroke="#cfcfcf"/><text x="1082" y="358" font-size="16" font-weight="600" fill="#111" text-anchor="middle">/</text><rect x="28" y="392" width="84" height="64" rx="9" fill="#dcfce7" stroke="#10b981"/><text x="70" y="430" font-size="16" font-weight="600" fill="#111" text-anchor="middle">SYM</text><rect x="120" y="392" width="176" height="64" rx="9" fill="#f0f9ff" stroke="#38bdf8" stroke-dasharray="4 3"/><rect x="199.5" y="395.5" width="17" height="17" rx="4" fill="#fff" stroke="#7dd3fc"/><text x="208" y="409" font-size="12" fill="#0369a1" text-anchor="middle">↑</text><rect x="179.5" y="415.5" width="17" height="17" rx="4" fill="#fff" stroke="#7dd3fc"/><text x="188" y="429" font-size="12" fill="#0369a1" text-anchor="middle">←</text><rect x="199.5" y="415.5" width="17" height="17" rx="4" fill="#fff" stroke="#7dd3fc"/><text x="208" y="429" font-size="12" fill="#0369a1" text-anchor="middle">↵</text><rect x="219.5" y="415.5" width="17" height="17" rx="4" fill="#fff" stroke="#7dd3fc"/><text x="228" y="429" font-size="12" fill="#0369a1" text-anchor="middle">→</text><rect x="199.5" y="435.5" width="17" height="17" rx="4" fill="#fff" stroke="#7dd3fc"/><text x="208" y="449" font-size="12" fill="#0369a1" text-anchor="middle">↓</text><rect x="304" y="392" width="84" height="64" rx="9" fill="#fafafa" stroke="#cfcfcf"/><text x="346" y="430" font-size="16" font-weight="600" fill="#111" text-anchor="middle">;</text><rect x="396" y="392" width="84" height="64" rx="9" fill="#fafafa" stroke="#cfcfcf"/><text x="438" y="430" font-size="16" font-weight="600" fill="#111" text-anchor="middle">'</text><rect x="488" y="392" width="84" height="64" rx="9" fill="#fafafa" stroke="#cfcfcf"/><text x="530" y="430" font-size="16" font-weight="600" fill="#111" text-anchor="middle">-</text><rect x="580" y="392" width="84" height="64" rx="9" fill="#fafafa" stroke="#cfcfcf"/><text x="622" y="430" font-size="16" font-weight="600" fill="#111" text-anchor="middle">Space</text><rect x="672" y="392" width="84" height="64" rx="9" fill="#fafafa" stroke="#cfcfcf"/><text x="714" y="430" font-size="16" font-weight="600" fill="#111" text-anchor="middle">SHIFT</text><rect x="764" y="392" width="84" height="64" rx="9" fill="#fafafa" stroke="#cfcfcf"/><text x="806" y="430" font-size="16" font-weight="600" fill="#111" text-anchor="middle">=</text><text x="843" y="450" font-size="10" fill="#6b7280" text-anchor="end">⌘A</text><rect x="856" y="392" width="84" height="64" rx="9" fill="#fafafa" stroke="#cfcfcf"/><text x="898" y="430" font-size="16" font-weight="600" fill="#111" text-anchor="middle">[</text><text x="935" y="450" font-size="10" fill="#6b7280" text-anchor="end">⌘X</text><rect x="948" y="392" width="84" height="64" rx="9" fill="#fafafa" stroke="#cfcfcf"/><text x="990" y="430" font-size="16" font-weight="600" fill="#111" text-anchor="middle">]</text><text x="1027" y="450" font-size="10" fill="#6b7280" text-anchor="end">⌘C</text><rect x="1040" y="392" width="84" height="64" rx="9" fill="#fafafa" stroke="#cfcfcf"/><text x="1082" y="430" font-size="16" font-weight="600" fill="#111" text-anchor="middle">\</text><text x="1119" y="450" font-size="10" fill="#6b7280" text-anchor="end">⌘V</text><text x="28" y="490" font-size="13" fill="#6b7280">Fn / Sym = momentanei (tieni premuto) · joystick centro = Invio · scorciatoie ⌘C/⌘V/⌘X/⌘Z/⌘A su Fn</text></svg>